M48
;GenerationSoftware,Autodesk,EAGLE,9.6.2*%
;CreationDate,2023-02-15T15:57:19Z*%
FMAT,2
ICI,OFF
METRIC,TZ,000.000
T3C0.813
T2C0.900
T1C1.016
%
G90
M71
T1
X60960Y41910
X60960Y44450
X60960Y46990
X60960Y49530
X60960Y52070
X60960Y54610
X60960Y59690
X60960Y62230
X60960Y64770
X60960Y67310
X60960Y69850
X60960Y72390
X12700Y72390
X12700Y69850
X12700Y67310
X12700Y64770
X12700Y62230
X12700Y59690
X12700Y57150
X12700Y54610
X12700Y50546
X12700Y48006
X12700Y45466
X12700Y42926
X12700Y40386
X12700Y37846
X12700Y35306
X12700Y32766
X12700Y30226
X12700Y27686
X60960Y39370
X60960Y36830
T2
X29210Y43180
X21590Y66040
X21590Y43180
X29210Y53340
X21590Y53340
X29210Y66040
T3
X48260Y43180
X48260Y53340
X50800Y53340
X48266Y67432
X50794Y67188
X50800Y43180
M30