G04 EAGLE Gerber RS-274X export*
G75*
%MOMM*%
%FSLAX34Y34*%
%LPD*%
%INTop Copper*%
%IPPOS*%
%AMOC8*
5,1,8,0,0,1.08239X$1,22.5*%
G01*
%ADD10C,1.879600*%
%ADD11P,1.814519X8X22.500000*%
%ADD12P,1.814519X8X377.000000*%
%ADD13C,0.152400*%


D10*
X609600Y419100D03*
X609600Y444500D03*
X609600Y469900D03*
X609600Y495300D03*
X609600Y520700D03*
X609600Y546100D03*
X609600Y596900D03*
X609600Y622300D03*
X609600Y647700D03*
X609600Y673100D03*
X609600Y698500D03*
X609600Y723900D03*
X127000Y723900D03*
X127000Y698500D03*
X127000Y673100D03*
X127000Y647700D03*
X127000Y622300D03*
X127000Y596900D03*
X127000Y571500D03*
X127000Y546100D03*
X127000Y505460D03*
X127000Y480060D03*
X127000Y454660D03*
X127000Y429260D03*
X127000Y403860D03*
X127000Y378460D03*
X127000Y353060D03*
X127000Y327660D03*
X127000Y302260D03*
X127000Y276860D03*
X609600Y393700D03*
X609600Y368300D03*
D11*
X482600Y431800D03*
X508000Y431800D03*
X482600Y533400D03*
X508000Y533400D03*
D12*
X482658Y674317D03*
X507942Y671883D03*
D10*
X292100Y431800D03*
X215900Y431800D03*
X292100Y533400D03*
X215900Y533400D03*
X292100Y660400D03*
X215900Y660400D03*
D13*
X292608Y432816D02*
X481584Y432816D01*
X482600Y431800D01*
X292608Y432816D02*
X292100Y431800D01*
X292100Y533400D02*
X482600Y533400D01*
X481584Y673608D02*
X304800Y673608D01*
X292608Y661416D01*
X481584Y673608D02*
X482658Y674317D01*
X292608Y661416D02*
X292100Y660400D01*
X214884Y661416D02*
X138684Y661416D01*
X127000Y673100D01*
X214884Y661416D02*
X215900Y660400D01*
X128016Y647700D02*
X128016Y638556D01*
X214884Y551688D01*
X214884Y533400D01*
X128016Y647700D02*
X127000Y647700D01*
X214884Y533400D02*
X215900Y533400D01*
X128016Y612648D02*
X128016Y621792D01*
X128016Y612648D02*
X204216Y536448D01*
X204216Y443484D01*
X215900Y431800D01*
X128016Y621792D02*
X127000Y622300D01*
X507492Y533400D02*
X507492Y495300D01*
X507492Y432816D01*
X508000Y431800D01*
X507492Y533400D02*
X507492Y670560D01*
X507942Y671883D01*
X507492Y533400D02*
X508000Y533400D01*
X507492Y495300D02*
X609600Y495300D01*
M02*
