G04 EAGLE Gerber RS-274X export*
G75*
%MOMM*%
%FSLAX34Y34*%
%LPD*%
%INSilkscreen Bottom*%
%IPPOS*%
%AMOC8*
5,1,8,0,0,1.08239X$1,22.5*%
G01*
%ADD10C,0.127000*%


D10*
X406400Y-495300D02*
X-393600Y-495300D01*
X-393600Y-135300D01*
X406400Y-135300D01*
X406400Y-495300D01*
X366400Y-195300D02*
X-353600Y-195300D01*
X-353600Y-435300D01*
X366400Y-435300D01*
X366400Y-195300D01*
X346400Y-215300D02*
X-333600Y-215300D01*
X-333600Y-225300D01*
X346400Y-225300D01*
X346400Y-215300D01*
X346400Y-415300D02*
X-333600Y-415300D01*
X-333600Y-405300D01*
X346400Y-405300D01*
X346400Y-415300D01*
X326400Y-275300D02*
X326391Y-274575D01*
X326365Y-273851D01*
X326321Y-273127D01*
X326260Y-272405D01*
X326181Y-271684D01*
X326085Y-270965D01*
X325972Y-270249D01*
X325841Y-269536D01*
X325693Y-268826D01*
X325528Y-268121D01*
X325346Y-267419D01*
X325147Y-266722D01*
X324932Y-266029D01*
X324699Y-265343D01*
X324450Y-264662D01*
X324185Y-263987D01*
X323904Y-263319D01*
X323606Y-262658D01*
X323293Y-262004D01*
X322964Y-261358D01*
X322619Y-260720D01*
X322259Y-260091D01*
X321884Y-259471D01*
X321494Y-258860D01*
X321090Y-258258D01*
X320671Y-257666D01*
X320237Y-257085D01*
X319790Y-256514D01*
X319329Y-255955D01*
X318855Y-255406D01*
X318368Y-254870D01*
X317868Y-254345D01*
X317355Y-253832D01*
X316830Y-253332D01*
X316294Y-252845D01*
X315745Y-252371D01*
X315186Y-251910D01*
X314615Y-251463D01*
X314034Y-251029D01*
X313442Y-250610D01*
X312840Y-250206D01*
X312229Y-249816D01*
X311609Y-249441D01*
X310980Y-249081D01*
X310342Y-248736D01*
X309696Y-248407D01*
X309042Y-248094D01*
X308381Y-247796D01*
X307713Y-247515D01*
X307038Y-247250D01*
X306357Y-247001D01*
X305671Y-246768D01*
X304978Y-246553D01*
X304281Y-246354D01*
X303579Y-246172D01*
X302874Y-246007D01*
X302164Y-245859D01*
X301451Y-245728D01*
X300735Y-245615D01*
X300016Y-245519D01*
X299295Y-245440D01*
X298573Y-245379D01*
X297849Y-245335D01*
X297125Y-245309D01*
X296400Y-245300D01*
X326400Y-275300D02*
X326400Y-355300D01*
X326391Y-356025D01*
X326365Y-356749D01*
X326321Y-357473D01*
X326260Y-358195D01*
X326181Y-358916D01*
X326085Y-359635D01*
X325972Y-360351D01*
X325841Y-361064D01*
X325693Y-361774D01*
X325528Y-362479D01*
X325346Y-363181D01*
X325147Y-363878D01*
X324932Y-364571D01*
X324699Y-365257D01*
X324450Y-365938D01*
X324185Y-366613D01*
X323904Y-367281D01*
X323606Y-367942D01*
X323293Y-368596D01*
X322964Y-369242D01*
X322619Y-369880D01*
X322259Y-370509D01*
X321884Y-371129D01*
X321494Y-371740D01*
X321090Y-372342D01*
X320671Y-372934D01*
X320237Y-373515D01*
X319790Y-374086D01*
X319329Y-374645D01*
X318855Y-375194D01*
X318368Y-375730D01*
X317868Y-376255D01*
X317355Y-376768D01*
X316830Y-377268D01*
X316294Y-377755D01*
X315745Y-378229D01*
X315186Y-378690D01*
X314615Y-379137D01*
X314034Y-379571D01*
X313442Y-379990D01*
X312840Y-380394D01*
X312229Y-380784D01*
X311609Y-381159D01*
X310980Y-381519D01*
X310342Y-381864D01*
X309696Y-382193D01*
X309042Y-382506D01*
X308381Y-382804D01*
X307713Y-383085D01*
X307038Y-383350D01*
X306357Y-383599D01*
X305671Y-383832D01*
X304978Y-384047D01*
X304281Y-384246D01*
X303579Y-384428D01*
X302874Y-384593D01*
X302164Y-384741D01*
X301451Y-384872D01*
X300735Y-384985D01*
X300016Y-385081D01*
X299295Y-385160D01*
X298573Y-385221D01*
X297849Y-385265D01*
X297125Y-385291D01*
X296400Y-385300D01*
X-283600Y-385300D01*
X-284325Y-385291D01*
X-285049Y-385265D01*
X-285773Y-385221D01*
X-286495Y-385160D01*
X-287216Y-385081D01*
X-287935Y-384985D01*
X-288651Y-384872D01*
X-289364Y-384741D01*
X-290074Y-384593D01*
X-290779Y-384428D01*
X-291481Y-384246D01*
X-292178Y-384047D01*
X-292871Y-383832D01*
X-293557Y-383599D01*
X-294238Y-383350D01*
X-294913Y-383085D01*
X-295581Y-382804D01*
X-296242Y-382506D01*
X-296896Y-382193D01*
X-297542Y-381864D01*
X-298180Y-381519D01*
X-298809Y-381159D01*
X-299429Y-380784D01*
X-300040Y-380394D01*
X-300642Y-379990D01*
X-301234Y-379571D01*
X-301815Y-379137D01*
X-302386Y-378690D01*
X-302945Y-378229D01*
X-303494Y-377755D01*
X-304030Y-377268D01*
X-304555Y-376768D01*
X-305068Y-376255D01*
X-305568Y-375730D01*
X-306055Y-375194D01*
X-306529Y-374645D01*
X-306990Y-374086D01*
X-307437Y-373515D01*
X-307871Y-372934D01*
X-308290Y-372342D01*
X-308694Y-371740D01*
X-309084Y-371129D01*
X-309459Y-370509D01*
X-309819Y-369880D01*
X-310164Y-369242D01*
X-310493Y-368596D01*
X-310806Y-367942D01*
X-311104Y-367281D01*
X-311385Y-366613D01*
X-311650Y-365938D01*
X-311899Y-365257D01*
X-312132Y-364571D01*
X-312347Y-363878D01*
X-312546Y-363181D01*
X-312728Y-362479D01*
X-312893Y-361774D01*
X-313041Y-361064D01*
X-313172Y-360351D01*
X-313285Y-359635D01*
X-313381Y-358916D01*
X-313460Y-358195D01*
X-313521Y-357473D01*
X-313565Y-356749D01*
X-313591Y-356025D01*
X-313600Y-355300D01*
X-313600Y-275300D01*
X-313591Y-274575D01*
X-313565Y-273851D01*
X-313521Y-273127D01*
X-313460Y-272405D01*
X-313381Y-271684D01*
X-313285Y-270965D01*
X-313172Y-270249D01*
X-313041Y-269536D01*
X-312893Y-268826D01*
X-312728Y-268121D01*
X-312546Y-267419D01*
X-312347Y-266722D01*
X-312132Y-266029D01*
X-311899Y-265343D01*
X-311650Y-264662D01*
X-311385Y-263987D01*
X-311104Y-263319D01*
X-310806Y-262658D01*
X-310493Y-262004D01*
X-310164Y-261358D01*
X-309819Y-260720D01*
X-309459Y-260091D01*
X-309084Y-259471D01*
X-308694Y-258860D01*
X-308290Y-258258D01*
X-307871Y-257666D01*
X-307437Y-257085D01*
X-306990Y-256514D01*
X-306529Y-255955D01*
X-306055Y-255406D01*
X-305568Y-254870D01*
X-305068Y-254345D01*
X-304555Y-253832D01*
X-304030Y-253332D01*
X-303494Y-252845D01*
X-302945Y-252371D01*
X-302386Y-251910D01*
X-301815Y-251463D01*
X-301234Y-251029D01*
X-300642Y-250610D01*
X-300040Y-250206D01*
X-299429Y-249816D01*
X-298809Y-249441D01*
X-298180Y-249081D01*
X-297542Y-248736D01*
X-296896Y-248407D01*
X-296242Y-248094D01*
X-295581Y-247796D01*
X-294913Y-247515D01*
X-294238Y-247250D01*
X-293557Y-247001D01*
X-292871Y-246768D01*
X-292178Y-246553D01*
X-291481Y-246354D01*
X-290779Y-246172D01*
X-290074Y-246007D01*
X-289364Y-245859D01*
X-288651Y-245728D01*
X-287935Y-245615D01*
X-287216Y-245519D01*
X-286495Y-245440D01*
X-285773Y-245379D01*
X-285049Y-245335D01*
X-284325Y-245309D01*
X-283600Y-245300D01*
X296400Y-245300D01*
M02*
