G04 EAGLE Gerber RS-274X export*
G75*
%MOMM*%
%FSLAX34Y34*%
%LPD*%
%INSoldermask Top*%
%IPPOS*%
%AMOC8*
5,1,8,0,0,1.08239X$1,22.5*%
G01*
%ADD10C,2.082800*%
%ADD11C,1.511200*%
%ADD12C,3.003200*%
%ADD13R,1.053200X1.103200*%
%ADD14C,2.000000*%
%ADD15C,1.000000*%


D10*
X-215900Y482600D03*
X-215900Y457200D03*
X-215900Y431800D03*
X-215900Y406400D03*
X-215900Y381000D03*
X-215900Y355600D03*
X-215900Y304800D03*
X-215900Y279400D03*
X-215900Y254000D03*
X-215900Y228600D03*
X-215900Y203200D03*
X-215900Y177800D03*
X266700Y177800D03*
X266700Y203200D03*
X266700Y228600D03*
X266700Y254000D03*
X266700Y279400D03*
X266700Y304800D03*
X266700Y330200D03*
X266700Y355600D03*
X266700Y396240D03*
X266700Y421640D03*
X266700Y447040D03*
X266700Y472440D03*
X266700Y497840D03*
X266700Y523240D03*
X266700Y548640D03*
X266700Y574040D03*
X266700Y599440D03*
X266700Y624840D03*
X-215900Y508000D03*
X-215900Y533400D03*
D11*
X326400Y-154160D02*
X326400Y-167240D01*
X301000Y-167240D02*
X301000Y-154160D01*
X275600Y-154160D02*
X275600Y-167240D01*
X250200Y-167240D02*
X250200Y-154160D01*
X224800Y-154160D02*
X224800Y-167240D01*
X199400Y-167240D02*
X199400Y-154160D01*
X174000Y-154160D02*
X174000Y-167240D01*
X148600Y-167240D02*
X148600Y-154160D01*
X123200Y-154160D02*
X123200Y-167240D01*
X97800Y-167240D02*
X97800Y-154160D01*
X72400Y-154160D02*
X72400Y-167240D01*
X47000Y-167240D02*
X47000Y-154160D01*
X21600Y-154160D02*
X21600Y-167240D01*
X-3800Y-167240D02*
X-3800Y-154160D01*
X-29200Y-154160D02*
X-29200Y-167240D01*
X-54600Y-167240D02*
X-54600Y-154160D01*
D12*
X381000Y-469900D03*
X381000Y-160700D03*
X-368200Y-160700D03*
X-368200Y-469900D03*
D13*
X-18500Y-800100D03*
X-6900Y-800100D03*
D14*
X108400Y-927100D03*
X196400Y-927100D03*
D15*
X127400Y-857100D03*
X152400Y-857100D03*
X177400Y-857100D03*
M02*
