<svg width="96mm" height="103mm" viewBox="0 0 96 103" xmlns="http://www.w3.org/2000/svg" version="1.1" preserveAspectRatio="xMidYMid meet"><g id="svgGroup" stroke-linecap="round" fill-rule="evenodd" font-size="9pt" stroke="#000" stroke-width="0.25mm" fill="none" style="stroke:#000;stroke-width:0.25mm;fill:none"><path d="M 0 53 L 0 71.905 L 3 71.905 L 3 84.095 L 0 84.095 L 0 96.285 L 0 103 L 6.405 103 L 6.405 100 L 18.595 100 L 18.595 103 L 25 103 L 25 84.095 L 22 84.095 L 22 71.905 L 25 71.905 L 25 59.715 L 25 53 L 18.595 53 L 18.595 56 L 6.405 56 L 6.405 53 L 0 53 Z" id="front_outsideCutPath" stroke="#FF0000" stroke-width="0.1" style="stroke:#FF0000;stroke-width:0.1" vector-effect="non-scaling-stroke"/><path d="M 16.144 79.888 L 15.739 79.888 L 15.739 78.157 Q 15.739 77.949 15.678 77.808 A 0.482 0.482 0 0 0 15.59 77.669 Q 15.441 77.508 15.123 77.508 A 1.227 1.227 0 0 0 14.894 77.528 Q 14.645 77.575 14.508 77.735 A 0.663 0.663 0 0 0 14.393 77.936 Q 14.324 78.121 14.314 78.397 A 2.597 2.597 0 0 0 14.313 78.485 L 14.313 79.888 L 13.907 79.888 L 13.907 77.213 L 14.237 77.213 L 14.303 77.579 L 14.323 77.579 A 0.821 0.821 0 0 1 14.644 77.286 A 0.987 0.987 0 0 1 14.672 77.272 A 1.097 1.097 0 0 1 15.062 77.168 A 1.327 1.327 0 0 1 15.172 77.164 Q 15.493 77.164 15.708 77.266 A 0.728 0.728 0 0 1 15.9 77.397 A 0.702 0.702 0 0 1 16.071 77.666 Q 16.112 77.776 16.13 77.913 A 1.769 1.769 0 0 1 16.144 78.143 L 16.144 79.888 Z M 8.358 77.213 L 8.358 77.528 L 7.677 77.528 L 7.677 79.888 L 7.272 79.888 L 7.272 77.528 L 6.793 77.528 L 6.793 77.344 L 7.272 77.198 L 7.272 77.049 Q 7.272 76.198 7.914 76.081 A 1.232 1.232 0 0 1 8.134 76.063 Q 8.346 76.063 8.632 76.148 L 8.527 76.473 Q 8.292 76.397 8.126 76.397 A 0.547 0.547 0 0 0 7.994 76.412 A 0.351 0.351 0 0 0 7.787 76.55 A 0.469 0.469 0 0 0 7.725 76.675 Q 7.684 76.797 7.678 76.978 A 1.913 1.913 0 0 0 7.677 77.039 L 7.677 77.213 L 8.358 77.213 Z M 18.207 79.554 L 18.207 79.864 A 0.399 0.399 0 0 1 18.16 79.883 Q 18.109 79.899 18.037 79.912 A 1.515 1.515 0 0 1 18.013 79.916 Q 17.893 79.936 17.796 79.937 A 1.038 1.038 0 0 1 17.782 79.937 A 1.059 1.059 0 0 1 17.47 79.895 Q 17.006 79.752 17.006 79.119 L 17.006 77.528 L 16.622 77.528 L 16.622 77.332 L 17.006 77.164 L 17.177 76.592 L 17.411 76.592 L 17.411 77.213 L 18.187 77.213 L 18.187 77.528 L 17.411 77.528 L 17.411 79.102 A 0.816 0.816 0 0 0 17.423 79.246 Q 17.448 79.385 17.526 79.473 A 0.376 0.376 0 0 0 17.757 79.597 A 0.542 0.542 0 0 0 17.841 79.603 A 1.331 1.331 0 0 0 18.036 79.589 A 1.226 1.226 0 0 0 18.048 79.587 A 2.192 2.192 0 0 0 18.107 79.577 Q 18.163 79.566 18.201 79.555 A 0.61 0.61 0 0 0 18.207 79.554 Z M 10.387 77.193 L 10.331 77.569 Q 10.193 77.539 10.081 77.533 A 0.951 0.951 0 0 0 10.038 77.532 A 0.702 0.702 0 0 0 9.519 77.757 A 0.961 0.961 0 0 0 9.482 77.796 A 0.925 0.925 0 0 0 9.259 78.316 A 1.23 1.23 0 0 0 9.252 78.453 L 9.252 79.888 L 8.846 79.888 L 8.846 77.213 L 9.181 77.213 L 9.227 77.708 L 9.247 77.708 A 1.369 1.369 0 0 1 9.4 77.49 A 1.045 1.045 0 0 1 9.606 77.305 Q 9.816 77.164 10.067 77.164 A 1.861 1.861 0 0 1 10.234 77.171 A 1.358 1.358 0 0 1 10.387 77.193 Z M 13.16 78.955 A 2.093 2.093 0 0 0 13.197 78.548 A 2.379 2.379 0 0 0 13.196 78.484 Q 13.19 78.261 13.142 78.072 A 1.262 1.262 0 0 0 12.866 77.537 A 1.061 1.061 0 0 0 12.374 77.22 A 1.362 1.362 0 0 0 11.974 77.164 A 1.574 1.574 0 0 0 11.691 77.188 A 1.072 1.072 0 0 0 11.066 77.529 Q 10.848 77.771 10.775 78.141 A 2.104 2.104 0 0 0 10.739 78.548 A 2.027 2.027 0 0 0 10.764 78.876 A 1.499 1.499 0 0 0 10.89 79.285 A 1.332 1.332 0 0 0 10.919 79.343 A 1.097 1.097 0 0 0 11.32 79.769 A 1.128 1.128 0 0 0 11.579 79.884 A 1.301 1.301 0 0 0 11.957 79.937 A 1.574 1.574 0 0 0 12.232 79.914 A 1.08 1.08 0 0 0 12.867 79.57 A 1.131 1.131 0 0 0 13.002 79.385 Q 13.112 79.197 13.16 78.955 Z M 11.245 79.111 A 0.85 0.85 0 0 0 11.364 79.329 Q 11.569 79.598 11.967 79.598 A 0.941 0.941 0 0 0 12.215 79.567 A 0.655 0.655 0 0 0 12.571 79.331 A 0.87 0.87 0 0 0 12.706 79.067 Q 12.777 78.85 12.777 78.548 A 2.022 2.022 0 0 0 12.758 78.26 Q 12.714 77.957 12.571 77.773 A 0.667 0.667 0 0 0 12.156 77.526 A 1.022 1.022 0 0 0 11.962 77.508 A 0.965 0.965 0 0 0 11.722 77.536 A 0.645 0.645 0 0 0 11.361 77.769 A 0.838 0.838 0 0 0 11.231 78.021 Q 11.192 78.137 11.174 78.278 A 2.142 2.142 0 0 0 11.158 78.548 Q 11.158 78.881 11.245 79.111 Z" id="front_labelLayer" stroke="#777777" fill="#777777" style="stroke:#777777;fill:#777777" vector-effect="non-scaling-stroke"/><path d="M 31 53 L 31 71.905 L 28 71.905 L 28 84.095 L 31 84.095 L 31 96.285 L 31 103 L 41.905 103 L 41.905 100 L 54.095 100 L 54.095 103 L 65 103 L 65 84.095 L 68 84.095 L 68 71.905 L 65 71.905 L 65 59.715 L 65 53 L 54.095 53 L 54.095 56 L 41.905 56 L 41.905 53 L 31 53 Z" id="left_outsideCutPath" stroke="#FF0000" stroke-width="0.1" style="stroke:#FF0000;stroke-width:0.1" vector-effect="non-scaling-stroke"/><path d="M 50.846 76.74 L 50.846 77.244 L 49.756 77.244 L 49.756 81.021 L 49.107 81.021 L 49.107 77.244 L 48.342 77.244 L 48.342 76.951 L 49.107 76.717 L 49.107 76.478 A 2.628 2.628 0 0 1 49.169 75.883 Q 49.359 75.071 50.135 74.93 A 1.971 1.971 0 0 1 50.486 74.9 A 2.088 2.088 0 0 1 50.782 74.923 Q 51.012 74.956 51.283 75.037 L 51.115 75.557 Q 50.74 75.435 50.475 75.435 A 0.874 0.874 0 0 0 50.264 75.459 A 0.562 0.562 0 0 0 49.932 75.68 A 0.75 0.75 0 0 0 49.832 75.88 Q 49.756 76.107 49.756 76.463 L 49.756 76.74 L 50.846 76.74 Z M 47.811 78.588 L 47.811 78.998 L 44.861 78.998 A 2.603 2.603 0 0 0 44.907 79.434 Q 44.954 79.671 45.048 79.858 A 1.217 1.217 0 0 0 45.242 80.142 A 1.178 1.178 0 0 0 45.861 80.491 A 1.785 1.785 0 0 0 46.26 80.533 A 3.425 3.425 0 0 0 47.542 80.279 A 3.924 3.924 0 0 0 47.627 80.244 L 47.627 80.822 A 3.893 3.893 0 0 1 47.272 80.956 A 2.977 2.977 0 0 1 46.977 81.035 A 2.722 2.722 0 0 1 46.706 81.077 Q 46.574 81.091 46.423 81.096 A 5.283 5.283 0 0 1 46.236 81.1 A 2.52 2.52 0 0 1 45.606 81.025 A 1.784 1.784 0 0 1 44.738 80.521 A 1.908 1.908 0 0 1 44.282 79.683 Q 44.189 79.337 44.189 78.916 A 3.405 3.405 0 0 1 44.252 78.241 Q 44.369 77.667 44.699 77.271 A 1.662 1.662 0 0 1 45.91 76.667 A 2.292 2.292 0 0 1 46.068 76.662 A 1.976 1.976 0 0 1 46.625 76.736 A 1.503 1.503 0 0 1 47.342 77.191 A 1.813 1.813 0 0 1 47.753 78.02 A 2.639 2.639 0 0 1 47.811 78.588 Z M 53.596 80.486 L 53.596 80.982 A 0.638 0.638 0 0 1 53.52 81.012 Q 53.426 81.043 53.285 81.066 A 2.811 2.811 0 0 1 53.102 81.09 Q 53.003 81.1 52.916 81.1 A 1.694 1.694 0 0 1 52.417 81.032 Q 51.868 80.863 51.725 80.267 A 2.038 2.038 0 0 1 51.674 79.791 L 51.674 77.244 L 51.061 77.244 L 51.061 76.932 L 51.674 76.662 L 51.947 75.748 L 52.322 75.748 L 52.322 76.74 L 53.564 76.74 L 53.564 77.244 L 52.322 77.244 L 52.322 79.764 Q 52.322 80.035 52.413 80.218 A 0.629 0.629 0 0 0 52.506 80.357 A 0.602 0.602 0 0 0 52.876 80.554 A 0.867 0.867 0 0 0 53.01 80.564 A 2.13 2.13 0 0 0 53.322 80.542 A 1.963 1.963 0 0 0 53.342 80.539 A 3.508 3.508 0 0 0 53.435 80.523 Q 53.525 80.506 53.587 80.489 A 0.975 0.975 0 0 0 53.596 80.486 Z M 43.053 74.943 L 43.053 81.021 L 42.404 81.021 L 42.404 74.943 L 43.053 74.943 Z M 44.877 78.471 L 47.115 78.471 A 2.21 2.21 0 0 0 47.089 78.115 Q 47.057 77.925 46.99 77.772 A 1.003 1.003 0 0 0 46.842 77.531 A 0.888 0.888 0 0 0 46.307 77.227 A 1.333 1.333 0 0 0 46.061 77.205 A 1.278 1.278 0 0 0 45.691 77.256 A 0.988 0.988 0 0 0 45.238 77.541 Q 44.961 77.845 44.89 78.36 A 2.45 2.45 0 0 0 44.877 78.471 Z" id="left_labelLayer" stroke="#777777" fill="#777777" style="stroke:#777777;fill:#777777" vector-effect="non-scaling-stroke"/><path d="M 74 66 L 74 76.905 L 71 76.905 L 71 89.095 L 74 89.095 L 74 100 L 77.405 100 L 77.405 103 L 89.595 103 L 89.595 100 L 93 100 L 93 89.095 L 96 89.095 L 96 76.905 L 93 76.905 L 93 66 L 89.595 66 L 89.595 63 L 77.405 63 L 77.405 66 L 74 66 Z" id="top_outsideCutPath" stroke="#FF0000" stroke-width="0.1" style="stroke:#FF0000;stroke-width:0.1" vector-effect="non-scaling-stroke"/><path d="M 85.297 83.703 L 85.268 83.703 A 3.835 3.835 0 0 1 85.293 83.987 A 3.214 3.214 0 0 1 85.297 84.147 L 85.297 85.249 L 84.892 85.249 L 84.892 81.372 L 85.221 81.372 L 85.277 81.738 L 85.297 81.738 A 1.091 1.091 0 0 1 85.455 81.559 A 0.844 0.844 0 0 1 85.661 81.42 A 1.015 1.015 0 0 1 85.952 81.335 A 1.314 1.314 0 0 1 86.137 81.323 A 1.242 1.242 0 0 1 86.488 81.37 A 0.918 0.918 0 0 1 86.958 81.687 A 1.217 1.217 0 0 1 87.166 82.092 Q 87.219 82.267 87.238 82.477 A 2.639 2.639 0 0 1 87.248 82.707 A 2.376 2.376 0 0 1 87.216 83.107 Q 87.18 83.32 87.101 83.491 A 1.139 1.139 0 0 1 86.953 83.731 A 0.959 0.959 0 0 1 86.271 84.09 A 1.375 1.375 0 0 1 86.137 84.096 A 1.229 1.229 0 0 1 85.828 84.059 A 1.07 1.07 0 0 1 85.659 84 A 0.898 0.898 0 0 1 85.297 83.703 Z M 81.337 83.713 L 81.337 84.023 A 0.399 0.399 0 0 1 81.29 84.042 Q 81.239 84.058 81.167 84.071 A 1.515 1.515 0 0 1 81.143 84.075 Q 81.023 84.095 80.926 84.096 A 1.038 1.038 0 0 1 80.912 84.096 A 1.059 1.059 0 0 1 80.6 84.054 Q 80.136 83.911 80.136 83.278 L 80.136 81.687 L 79.752 81.687 L 79.752 81.491 L 80.136 81.323 L 80.307 80.751 L 80.541 80.751 L 80.541 81.372 L 81.317 81.372 L 81.317 81.687 L 80.541 81.687 L 80.541 83.261 A 0.816 0.816 0 0 0 80.553 83.405 Q 80.578 83.544 80.656 83.632 A 0.376 0.376 0 0 0 80.887 83.756 A 0.542 0.542 0 0 0 80.971 83.762 A 1.331 1.331 0 0 0 81.166 83.748 A 1.226 1.226 0 0 0 81.178 83.746 A 2.192 2.192 0 0 0 81.237 83.736 Q 81.293 83.725 81.331 83.714 A 0.61 0.61 0 0 0 81.337 83.713 Z M 84.144 83.114 A 2.093 2.093 0 0 0 84.181 82.707 A 2.379 2.379 0 0 0 84.18 82.643 Q 84.174 82.42 84.126 82.231 A 1.262 1.262 0 0 0 83.85 81.696 A 1.061 1.061 0 0 0 83.358 81.379 A 1.362 1.362 0 0 0 82.958 81.323 A 1.574 1.574 0 0 0 82.675 81.347 A 1.072 1.072 0 0 0 82.05 81.688 Q 81.833 81.93 81.76 82.3 A 2.104 2.104 0 0 0 81.723 82.707 A 2.027 2.027 0 0 0 81.748 83.035 A 1.499 1.499 0 0 0 81.874 83.444 A 1.332 1.332 0 0 0 81.903 83.502 A 1.097 1.097 0 0 0 82.304 83.928 A 1.128 1.128 0 0 0 82.563 84.043 A 1.301 1.301 0 0 0 82.941 84.096 A 1.574 1.574 0 0 0 83.216 84.073 A 1.08 1.08 0 0 0 83.852 83.729 A 1.131 1.131 0 0 0 83.986 83.544 Q 84.096 83.356 84.144 83.114 Z M 82.229 83.27 A 0.85 0.85 0 0 0 82.348 83.488 Q 82.553 83.757 82.951 83.757 A 0.941 0.941 0 0 0 83.199 83.726 A 0.655 0.655 0 0 0 83.555 83.49 A 0.87 0.87 0 0 0 83.69 83.226 Q 83.761 83.009 83.761 82.707 A 2.022 2.022 0 0 0 83.742 82.419 Q 83.698 82.116 83.555 81.932 A 0.667 0.667 0 0 0 83.14 81.685 A 1.022 1.022 0 0 0 82.946 81.667 A 0.965 0.965 0 0 0 82.706 81.695 A 0.645 0.645 0 0 0 82.345 81.928 A 0.838 0.838 0 0 0 82.215 82.18 Q 82.176 82.296 82.158 82.437 A 2.142 2.142 0 0 0 82.143 82.707 Q 82.143 83.04 82.229 83.27 Z M 85.297 82.617 L 85.297 82.707 Q 85.297 83.271 85.485 83.514 A 0.588 0.588 0 0 0 85.783 83.715 Q 85.916 83.757 86.088 83.757 A 0.683 0.683 0 0 0 86.353 83.707 Q 86.506 83.643 86.616 83.497 A 0.808 0.808 0 0 0 86.631 83.476 Q 86.786 83.255 86.819 82.901 A 2.159 2.159 0 0 0 86.828 82.702 A 2.045 2.045 0 0 0 86.808 82.412 Q 86.766 82.118 86.631 81.934 A 0.63 0.63 0 0 0 86.17 81.672 A 0.872 0.872 0 0 0 86.078 81.667 A 1.168 1.168 0 0 0 85.86 81.686 Q 85.738 81.709 85.645 81.761 A 0.536 0.536 0 0 0 85.485 81.894 Q 85.313 82.107 85.298 82.555 A 2.58 2.58 0 0 0 85.297 82.617 Z" id="top_labelLayer" stroke="#777777" fill="#777777" style="stroke:#777777;fill:#777777" vector-effect="non-scaling-stroke"/><path d="M 0 0 L 0 18.905 L 3 18.905 L 3 31.095 L 0 31.095 L 0 43.285 L 0 50 L 6.405 50 L 6.405 47 L 18.595 47 L 18.595 50 L 25 50 L 25 31.095 L 22 31.095 L 22 18.905 L 25 18.905 L 25 6.715 L 25 0 L 18.595 0 L 18.595 3 L 6.405 3 L 6.405 0 L 0 0 Z" id="back_outsideCutPath" stroke="#FF0000" stroke-width="0.1" style="stroke:#FF0000;stroke-width:0.1" vector-effect="non-scaling-stroke"/><path d="M 15.923 25.505 L 15.942 25.505 A 2.399 2.399 0 0 1 16.002 25.425 Q 16.07 25.336 16.168 25.223 A 8.708 8.708 0 0 1 16.262 25.115 L 17.126 24.199 L 17.607 24.199 L 16.523 25.339 L 17.683 26.875 L 17.192 26.875 L 16.248 25.61 L 15.942 25.874 L 15.942 26.875 L 15.542 26.875 L 15.542 23.076 L 15.942 23.076 L 15.942 25.09 A 2.7 2.7 0 0 1 15.941 25.167 Q 15.938 25.292 15.924 25.495 A 16.804 16.804 0 0 1 15.923 25.505 Z M 7.722 26.531 L 7.693 26.531 L 7.607 26.875 L 7.317 26.875 L 7.317 23.076 L 7.722 23.076 L 7.722 23.999 Q 7.722 24.299 7.704 24.54 A 5.035 5.035 0 0 1 7.703 24.556 L 7.722 24.556 Q 8.005 24.155 8.562 24.155 Q 9.089 24.155 9.381 24.515 A 1.194 1.194 0 0 1 9.591 24.919 Q 9.642 25.085 9.661 25.284 A 2.601 2.601 0 0 1 9.673 25.535 A 2.376 2.376 0 0 1 9.641 25.934 Q 9.605 26.148 9.526 26.318 A 1.139 1.139 0 0 1 9.379 26.559 A 0.959 0.959 0 0 1 8.697 26.917 A 1.375 1.375 0 0 1 8.562 26.924 A 1.229 1.229 0 0 1 8.253 26.886 A 1.07 1.07 0 0 1 8.085 26.827 A 0.898 0.898 0 0 1 7.722 26.531 Z M 12.327 26.875 L 12.026 26.875 L 11.946 26.494 L 11.926 26.494 Q 11.785 26.672 11.644 26.768 A 0.747 0.747 0 0 1 11.527 26.835 A 0.935 0.935 0 0 1 11.334 26.896 Q 11.24 26.915 11.132 26.921 A 1.824 1.824 0 0 1 11.03 26.924 A 1.244 1.244 0 0 1 10.777 26.9 Q 10.623 26.867 10.504 26.793 A 0.698 0.698 0 0 1 10.406 26.719 Q 10.181 26.514 10.181 26.135 A 0.701 0.701 0 0 1 10.58 25.473 Q 10.9 25.303 11.477 25.286 L 11.931 25.271 L 11.931 25.105 Q 11.931 24.912 11.881 24.782 A 0.452 0.452 0 0 0 11.796 24.64 A 0.411 0.411 0 0 0 11.627 24.53 Q 11.516 24.49 11.362 24.49 A 1.319 1.319 0 0 0 11.059 24.528 Q 10.846 24.578 10.605 24.695 L 10.481 24.385 Q 10.679 24.277 10.914 24.216 A 1.877 1.877 0 0 1 11.387 24.155 A 1.712 1.712 0 0 1 11.647 24.174 Q 11.933 24.218 12.096 24.368 Q 12.277 24.534 12.316 24.858 A 1.595 1.595 0 0 1 12.327 25.049 L 12.327 26.875 Z M 14.946 24.29 L 14.822 24.634 A 1.803 1.803 0 0 0 14.626 24.569 A 2.153 2.153 0 0 0 14.529 24.545 A 1.674 1.674 0 0 0 14.401 24.521 Q 14.339 24.512 14.284 24.51 A 0.898 0.898 0 0 0 14.248 24.509 Q 13.524 24.509 13.443 25.33 A 2.239 2.239 0 0 0 13.433 25.549 A 1.963 1.963 0 0 0 13.452 25.835 Q 13.495 26.125 13.632 26.306 A 0.644 0.644 0 0 0 14.049 26.555 A 0.98 0.98 0 0 0 14.221 26.57 A 1.697 1.697 0 0 0 14.689 26.502 A 2.095 2.095 0 0 0 14.907 26.426 L 14.907 26.785 Q 14.639 26.924 14.231 26.924 A 1.515 1.515 0 0 1 13.862 26.882 A 1.027 1.027 0 0 1 13.331 26.566 Q 13.056 26.257 13.019 25.727 A 2.451 2.451 0 0 1 13.013 25.554 A 2.236 2.236 0 0 1 13.047 25.148 Q 13.089 24.921 13.182 24.742 A 1.117 1.117 0 0 1 13.336 24.517 A 1.049 1.049 0 0 1 13.911 24.186 A 1.591 1.591 0 0 1 14.258 24.15 A 1.829 1.829 0 0 1 14.644 24.192 A 2.023 2.023 0 0 1 14.756 24.219 Q 14.869 24.25 14.944 24.288 A 0.631 0.631 0 0 1 14.946 24.29 Z M 8.503 24.495 A 1.139 1.139 0 0 0 8.283 24.514 Q 8.157 24.539 8.062 24.595 A 0.539 0.539 0 0 0 7.905 24.733 A 0.694 0.694 0 0 0 7.805 24.924 Q 7.722 25.156 7.722 25.535 Q 7.722 26.099 7.91 26.342 A 0.588 0.588 0 0 0 8.208 26.543 Q 8.341 26.584 8.513 26.584 Q 8.887 26.584 9.07 26.312 Q 9.201 26.118 9.238 25.802 A 2.322 2.322 0 0 0 9.253 25.53 Q 9.253 25.007 9.07 24.751 Q 8.887 24.495 8.503 24.495 Z M 11.921 25.801 L 11.921 25.559 L 11.516 25.576 Q 11.112 25.59 10.897 25.686 A 0.622 0.622 0 0 0 10.819 25.726 A 0.432 0.432 0 0 0 10.613 26.04 A 0.64 0.64 0 0 0 10.605 26.14 Q 10.605 26.36 10.739 26.475 Q 10.872 26.589 11.111 26.589 Q 11.438 26.589 11.644 26.434 A 0.677 0.677 0 0 0 11.705 26.382 A 0.679 0.679 0 0 0 11.895 26.043 Q 11.921 25.934 11.921 25.805 A 1.311 1.311 0 0 0 11.921 25.801 Z" id="back_labelLayer" stroke="#777777" fill="#777777" style="stroke:#777777;fill:#777777" vector-effect="non-scaling-stroke"/><path d="M 31 0 L 31 18.905 L 28 18.905 L 28 31.095 L 31 31.095 L 31 43.285 L 31 50 L 41.905 50 L 41.905 47 L 54.095 47 L 54.095 50 L 65 50 L 65 31.095 L 68 31.095 L 68 18.905 L 65 18.905 L 65 6.715 L 65 0 L 54.095 0 L 54.095 3 L 41.905 3 L 41.905 0 L 31 0 Z" id="right_outsideCutPath" stroke="#FF0000" stroke-width="0.1" style="stroke:#FF0000;stroke-width:0.1" vector-effect="non-scaling-stroke"/><path d="M 52.975 27.078 L 52.326 27.078 L 52.326 24.309 Q 52.326 23.975 52.229 23.749 A 0.771 0.771 0 0 0 52.088 23.527 A 0.731 0.731 0 0 0 51.788 23.336 Q 51.67 23.294 51.525 23.279 A 1.719 1.719 0 0 0 51.342 23.27 Q 50.666 23.27 50.355 23.637 A 1.079 1.079 0 0 0 50.172 23.961 Q 50.062 24.258 50.047 24.7 A 4.185 4.185 0 0 0 50.045 24.84 L 50.045 27.078 L 49.396 27.078 L 49.396 21 L 50.045 21 L 50.045 22.84 Q 50.045 23.079 50.029 23.259 A 2.536 2.536 0 0 1 50.014 23.391 L 50.053 23.391 A 1.296 1.296 0 0 1 50.507 22.954 A 1.583 1.583 0 0 1 50.598 22.904 Q 50.951 22.727 51.404 22.727 A 2.631 2.631 0 0 1 51.846 22.761 Q 52.309 22.84 52.582 23.1 A 1.129 1.129 0 0 1 52.861 23.537 Q 52.927 23.719 52.955 23.944 A 2.804 2.804 0 0 1 52.975 24.285 L 52.975 27.078 Z M 47.037 22.797 L 48.518 22.797 L 48.518 23.207 L 47.725 23.301 Q 47.817 23.416 47.892 23.59 A 1.999 1.999 0 0 1 47.92 23.658 A 1.248 1.248 0 0 1 47.994 23.956 A 1.602 1.602 0 0 1 48.006 24.156 A 1.487 1.487 0 0 1 47.938 24.617 A 1.202 1.202 0 0 1 47.576 25.16 A 1.438 1.438 0 0 1 47.01 25.458 Q 46.796 25.518 46.542 25.531 A 2.816 2.816 0 0 1 46.396 25.535 A 2.084 2.084 0 0 1 46.155 25.522 A 1.76 1.76 0 0 1 46.037 25.504 Q 45.801 25.629 45.699 25.791 A 0.488 0.488 0 0 0 45.623 26.055 Q 45.623 26.225 45.759 26.309 A 0.36 0.36 0 0 0 45.768 26.314 A 0.455 0.455 0 0 0 45.868 26.356 Q 46.014 26.398 46.264 26.398 L 47.021 26.398 Q 47.717 26.398 48.09 26.691 A 0.949 0.949 0 0 1 48.442 27.296 A 1.425 1.425 0 0 1 48.463 27.543 A 1.404 1.404 0 0 1 48.383 28.029 Q 48.253 28.382 47.915 28.612 A 1.54 1.54 0 0 1 47.893 28.627 Q 47.495 28.887 46.843 28.966 A 5.14 5.14 0 0 1 46.229 29 Q 45.677 29 45.292 28.865 A 1.507 1.507 0 0 1 44.934 28.687 Q 44.508 28.395 44.48 27.877 A 1.369 1.369 0 0 1 44.479 27.805 A 0.991 0.991 0 0 1 44.729 27.129 A 1.132 1.132 0 0 1 45.117 26.845 A 1.605 1.605 0 0 1 45.432 26.742 A 0.673 0.673 0 0 1 45.17 26.531 A 0.799 0.799 0 0 1 45.156 26.512 A 0.601 0.601 0 0 1 45.046 26.187 A 0.745 0.745 0 0 1 45.045 26.148 A 0.742 0.742 0 0 1 45.082 25.91 A 0.657 0.657 0 0 1 45.17 25.738 A 0.928 0.928 0 0 1 45.292 25.6 Q 45.358 25.539 45.441 25.479 A 2.037 2.037 0 0 1 45.564 25.398 A 1.137 1.137 0 0 1 45.071 25.003 A 1.409 1.409 0 0 1 45.023 24.934 Q 44.814 24.605 44.814 24.184 A 1.873 1.873 0 0 1 44.864 23.741 A 1.233 1.233 0 0 1 45.236 23.1 Q 45.601 22.771 46.227 22.726 A 2.864 2.864 0 0 1 46.432 22.719 Q 46.768 22.719 47.037 22.797 Z M 56.275 26.543 L 56.275 27.039 A 0.638 0.638 0 0 1 56.2 27.069 Q 56.106 27.1 55.965 27.123 A 2.811 2.811 0 0 1 55.782 27.147 Q 55.683 27.156 55.596 27.156 A 1.694 1.694 0 0 1 55.097 27.089 Q 54.548 26.92 54.404 26.324 A 2.038 2.038 0 0 1 54.354 25.848 L 54.354 23.301 L 53.74 23.301 L 53.74 22.988 L 54.354 22.719 L 54.627 21.805 L 55.002 21.805 L 55.002 22.797 L 56.244 22.797 L 56.244 23.301 L 55.002 23.301 L 55.002 25.82 Q 55.002 26.092 55.093 26.275 A 0.629 0.629 0 0 0 55.186 26.414 A 0.602 0.602 0 0 0 55.556 26.611 A 0.867 0.867 0 0 0 55.689 26.621 A 2.13 2.13 0 0 0 56.001 26.599 A 1.963 1.963 0 0 0 56.021 26.596 A 3.508 3.508 0 0 0 56.115 26.58 Q 56.205 26.563 56.267 26.545 A 0.975 0.975 0 0 0 56.275 26.543 Z M 42.189 22.766 L 42.1 23.367 Q 41.878 23.318 41.7 23.31 A 1.521 1.521 0 0 0 41.631 23.309 Q 41.111 23.309 40.742 23.73 A 1.481 1.481 0 0 0 40.385 24.562 A 1.968 1.968 0 0 0 40.373 24.781 L 40.373 27.078 L 39.725 27.078 L 39.725 22.797 L 40.26 22.797 L 40.334 23.59 L 40.365 23.59 A 2.19 2.19 0 0 1 40.61 23.24 A 1.673 1.673 0 0 1 40.939 22.945 Q 41.275 22.719 41.678 22.719 Q 41.963 22.719 42.189 22.766 Z M 43.639 22.797 L 43.639 27.078 L 42.99 27.078 L 42.99 22.797 L 43.639 22.797 Z M 46.814 26.98 L 46.037 26.98 A 1.491 1.491 0 0 0 45.768 27.003 Q 45.616 27.031 45.495 27.094 A 0.76 0.76 0 0 0 45.35 27.191 A 0.683 0.683 0 0 0 45.125 27.579 A 1.038 1.038 0 0 0 45.104 27.797 A 0.651 0.651 0 0 0 45.146 28.038 Q 45.216 28.213 45.396 28.324 Q 45.689 28.504 46.236 28.504 A 4.359 4.359 0 0 0 46.662 28.485 Q 47.089 28.443 47.357 28.309 A 1.077 1.077 0 0 0 47.445 28.26 A 0.946 0.946 0 0 0 47.665 28.076 A 0.709 0.709 0 0 0 47.838 27.598 A 0.877 0.877 0 0 0 47.822 27.423 Q 47.779 27.213 47.623 27.115 Q 47.459 27.013 47.076 26.988 A 4.126 4.126 0 0 0 46.814 26.98 Z M 45.455 24.168 A 1.266 1.266 0 0 0 45.481 24.433 Q 45.536 24.691 45.709 24.848 A 0.838 0.838 0 0 0 46.046 25.031 Q 46.175 25.068 46.328 25.076 A 1.67 1.67 0 0 0 46.416 25.078 A 1.413 1.413 0 0 0 46.786 25.034 Q 47.365 24.876 47.365 24.156 A 1.394 1.394 0 0 0 47.318 23.774 Q 47.195 23.346 46.76 23.233 A 1.41 1.41 0 0 0 46.404 23.191 Q 45.947 23.191 45.701 23.437 A 0.778 0.778 0 0 0 45.513 23.755 Q 45.473 23.877 45.461 24.027 A 1.706 1.706 0 0 0 45.455 24.168 Z M 42.945 21.518 A 0.719 0.719 0 0 0 42.936 21.637 A 0.766 0.766 0 0 0 42.939 21.71 Q 42.945 21.775 42.963 21.829 A 0.335 0.335 0 0 0 43.045 21.963 Q 43.154 22.07 43.318 22.07 A 0.378 0.378 0 0 0 43.588 21.963 A 0.316 0.316 0 0 0 43.65 21.881 Q 43.678 21.828 43.691 21.76 A 0.671 0.671 0 0 0 43.701 21.637 Q 43.701 21.53 43.674 21.45 A 0.327 0.327 0 0 0 43.588 21.312 A 0.382 0.382 0 0 0 43.318 21.207 A 0.495 0.495 0 0 0 43.286 21.208 A 0.375 0.375 0 0 0 43.045 21.311 A 0.303 0.303 0 0 0 42.978 21.406 Q 42.955 21.455 42.945 21.518 Z" id="right_labelLayer" stroke="#777777" fill="#777777" style="stroke:#777777;fill:#777777" vector-effect="non-scaling-stroke"/><path d="M 74 23 L 74 33.905 L 71 33.905 L 71 46.095 L 74 46.095 L 74 57 L 77.405 57 L 77.405 60 L 89.595 60 L 89.595 57 L 93 57 L 93 46.095 L 96 46.095 L 96 33.905 L 93 33.905 L 93 23 L 89.595 23 L 89.595 20 L 77.405 20 L 77.405 23 L 74 23 Z" id="bottom_outsideCutPath" stroke="#FF0000" stroke-width="0.1" style="stroke:#FF0000;stroke-width:0.1" vector-effect="non-scaling-stroke"/><path d="M 91.725 41.875 L 91.32 41.875 L 91.32 40.134 Q 91.32 39.934 91.266 39.796 A 0.49 0.49 0 0 0 91.183 39.654 A 0.426 0.426 0 0 0 90.985 39.526 Q 90.914 39.503 90.828 39.497 A 0.941 0.941 0 0 0 90.758 39.495 A 1.043 1.043 0 0 0 90.546 39.515 Q 90.42 39.541 90.325 39.601 A 0.537 0.537 0 0 0 90.199 39.712 Q 90.019 39.929 90.019 40.381 L 90.019 41.875 L 89.613 41.875 L 89.613 40.134 Q 89.613 39.934 89.56 39.796 A 0.49 0.49 0 0 0 89.477 39.654 Q 89.34 39.495 89.049 39.495 A 1.007 1.007 0 0 0 88.841 39.515 Q 88.616 39.562 88.491 39.723 Q 88.331 39.93 88.316 40.376 A 2.822 2.822 0 0 0 88.314 40.471 L 88.314 41.875 L 87.909 41.875 L 87.909 39.199 L 88.239 39.199 L 88.305 39.565 L 88.324 39.565 A 0.797 0.797 0 0 1 88.648 39.26 A 0.962 0.962 0 0 1 89.028 39.154 A 1.162 1.162 0 0 1 89.115 39.15 A 1.327 1.327 0 0 1 89.414 39.181 Q 89.598 39.224 89.726 39.325 A 0.692 0.692 0 0 1 89.936 39.604 L 89.955 39.604 A 0.846 0.846 0 0 1 90.274 39.288 A 1.017 1.017 0 0 1 90.302 39.272 A 1.026 1.026 0 0 1 90.678 39.158 A 1.279 1.279 0 0 1 90.819 39.15 A 1.409 1.409 0 0 1 91.075 39.172 Q 91.342 39.221 91.499 39.383 A 0.698 0.698 0 0 1 91.649 39.629 Q 91.725 39.832 91.725 40.129 L 91.725 41.875 Z M 75.68 41.531 L 75.651 41.531 L 75.565 41.875 L 75.275 41.875 L 75.275 38.076 L 75.68 38.076 L 75.68 38.999 Q 75.68 39.299 75.662 39.54 A 5.035 5.035 0 0 1 75.661 39.556 L 75.68 39.556 Q 75.963 39.155 76.52 39.155 Q 77.047 39.155 77.339 39.515 A 1.194 1.194 0 0 1 77.549 39.919 Q 77.6 40.085 77.619 40.284 A 2.601 2.601 0 0 1 77.631 40.535 A 2.376 2.376 0 0 1 77.599 40.934 Q 77.563 41.147 77.484 41.318 A 1.139 1.139 0 0 1 77.337 41.559 A 0.959 0.959 0 0 1 76.655 41.917 A 1.375 1.375 0 0 1 76.52 41.924 A 1.229 1.229 0 0 1 76.211 41.886 A 1.07 1.07 0 0 1 76.043 41.827 A 0.898 0.898 0 0 1 75.68 41.531 Z M 82.589 41.54 L 82.589 41.851 A 0.399 0.399 0 0 1 82.542 41.869 Q 82.492 41.886 82.419 41.899 A 1.515 1.515 0 0 1 82.395 41.903 Q 82.276 41.922 82.178 41.924 A 1.038 1.038 0 0 1 82.165 41.924 A 1.059 1.059 0 0 1 81.853 41.882 Q 81.388 41.738 81.388 41.106 L 81.388 39.514 L 81.005 39.514 L 81.005 39.319 L 81.388 39.15 L 81.559 38.579 L 81.793 38.579 L 81.793 39.199 L 82.57 39.199 L 82.57 39.514 L 81.793 39.514 L 81.793 41.089 A 0.816 0.816 0 0 0 81.805 41.232 Q 81.83 41.372 81.908 41.46 A 0.376 0.376 0 0 0 82.14 41.583 A 0.542 0.542 0 0 0 82.223 41.589 A 1.331 1.331 0 0 0 82.418 41.575 A 1.226 1.226 0 0 0 82.431 41.573 A 2.192 2.192 0 0 0 82.489 41.563 Q 82.545 41.553 82.584 41.542 A 0.61 0.61 0 0 0 82.589 41.54 Z M 84.354 41.54 L 84.354 41.851 A 0.399 0.399 0 0 1 84.307 41.869 Q 84.257 41.886 84.185 41.899 A 1.515 1.515 0 0 1 84.16 41.903 Q 84.041 41.922 83.943 41.924 A 1.038 1.038 0 0 1 83.93 41.924 A 1.059 1.059 0 0 1 83.618 41.882 Q 83.153 41.738 83.153 41.106 L 83.153 39.514 L 82.77 39.514 L 82.77 39.319 L 83.153 39.15 L 83.324 38.579 L 83.559 38.579 L 83.559 39.199 L 84.335 39.199 L 84.335 39.514 L 83.559 39.514 L 83.559 41.089 A 0.816 0.816 0 0 0 83.57 41.232 Q 83.595 41.372 83.673 41.46 A 0.376 0.376 0 0 0 83.905 41.583 A 0.542 0.542 0 0 0 83.988 41.589 A 1.331 1.331 0 0 0 84.183 41.575 A 1.226 1.226 0 0 0 84.196 41.573 A 2.192 2.192 0 0 0 84.254 41.563 Q 84.31 41.553 84.349 41.542 A 0.61 0.61 0 0 0 84.354 41.54 Z M 80.611 40.942 A 2.093 2.093 0 0 0 80.648 40.535 A 2.379 2.379 0 0 0 80.648 40.47 Q 80.642 40.247 80.593 40.058 A 1.262 1.262 0 0 0 80.318 39.524 A 1.061 1.061 0 0 0 79.825 39.206 A 1.362 1.362 0 0 0 79.425 39.15 A 1.574 1.574 0 0 0 79.143 39.175 A 1.072 1.072 0 0 0 78.517 39.515 Q 78.3 39.758 78.227 40.128 A 2.104 2.104 0 0 0 78.19 40.535 A 2.027 2.027 0 0 0 78.215 40.863 A 1.499 1.499 0 0 0 78.341 41.272 A 1.332 1.332 0 0 0 78.371 41.33 A 1.097 1.097 0 0 0 78.771 41.755 A 1.128 1.128 0 0 0 79.03 41.87 A 1.301 1.301 0 0 0 79.408 41.924 A 1.574 1.574 0 0 0 79.683 41.901 A 1.08 1.08 0 0 0 80.319 41.556 A 1.131 1.131 0 0 0 80.453 41.371 Q 80.563 41.184 80.611 40.942 Z M 87.162 40.942 A 2.093 2.093 0 0 0 87.199 40.535 A 2.379 2.379 0 0 0 87.198 40.47 Q 87.192 40.247 87.144 40.058 A 1.262 1.262 0 0 0 86.868 39.524 A 1.061 1.061 0 0 0 86.375 39.206 A 1.362 1.362 0 0 0 85.976 39.15 A 1.574 1.574 0 0 0 85.693 39.175 A 1.072 1.072 0 0 0 85.067 39.515 Q 84.85 39.758 84.777 40.128 A 2.104 2.104 0 0 0 84.74 40.535 A 2.027 2.027 0 0 0 84.766 40.863 A 1.499 1.499 0 0 0 84.892 41.272 A 1.332 1.332 0 0 0 84.921 41.33 A 1.097 1.097 0 0 0 85.321 41.755 A 1.128 1.128 0 0 0 85.58 41.87 A 1.301 1.301 0 0 0 85.958 41.924 A 1.574 1.574 0 0 0 86.233 41.901 A 1.08 1.08 0 0 0 86.869 41.556 A 1.131 1.131 0 0 0 87.004 41.371 Q 87.114 41.184 87.162 40.942 Z M 78.696 41.097 A 0.85 0.85 0 0 0 78.815 41.316 Q 79.02 41.584 79.418 41.584 A 0.941 0.941 0 0 0 79.666 41.554 A 0.655 0.655 0 0 0 80.022 41.317 A 0.87 0.87 0 0 0 80.158 41.053 Q 80.229 40.836 80.229 40.535 A 2.022 2.022 0 0 0 80.209 40.246 Q 80.166 39.944 80.022 39.759 A 0.667 0.667 0 0 0 79.608 39.512 A 1.022 1.022 0 0 0 79.413 39.495 A 0.965 0.965 0 0 0 79.173 39.523 A 0.645 0.645 0 0 0 78.812 39.756 A 0.838 0.838 0 0 0 78.682 40.008 Q 78.644 40.123 78.626 40.265 A 2.142 2.142 0 0 0 78.61 40.535 Q 78.61 40.867 78.696 41.097 Z M 85.246 41.097 A 0.85 0.85 0 0 0 85.365 41.316 Q 85.57 41.584 85.968 41.584 A 0.941 0.941 0 0 0 86.217 41.554 A 0.655 0.655 0 0 0 86.572 41.317 A 0.87 0.87 0 0 0 86.708 41.053 Q 86.779 40.836 86.779 40.535 A 2.022 2.022 0 0 0 86.76 40.246 Q 86.716 39.944 86.572 39.759 A 0.667 0.667 0 0 0 86.158 39.512 A 1.022 1.022 0 0 0 85.963 39.495 A 0.965 0.965 0 0 0 85.723 39.523 A 0.645 0.645 0 0 0 85.363 39.756 A 0.838 0.838 0 0 0 85.233 40.008 Q 85.194 40.123 85.176 40.265 A 2.142 2.142 0 0 0 85.16 40.535 Q 85.16 40.867 85.246 41.097 Z M 76.461 39.495 A 1.139 1.139 0 0 0 76.241 39.514 Q 76.115 39.539 76.02 39.595 A 0.539 0.539 0 0 0 75.863 39.733 A 0.694 0.694 0 0 0 75.763 39.924 Q 75.68 40.156 75.68 40.535 Q 75.68 41.099 75.868 41.341 A 0.588 0.588 0 0 0 76.166 41.543 Q 76.299 41.584 76.471 41.584 Q 76.845 41.584 77.028 41.312 Q 77.159 41.118 77.196 40.802 A 2.322 2.322 0 0 0 77.211 40.53 Q 77.211 40.007 77.028 39.751 Q 76.845 39.495 76.461 39.495 Z" id="bottom_labelLayer" stroke="#777777" fill="#777777" style="stroke:#777777;fill:#777777" vector-effect="non-scaling-stroke"/></g></svg>