M48
;GenerationSoftware,Autodesk,EAGLE,9.6.2*%
;CreationDate,2023-03-12T19:23:30Z*%
FMAT,2
ICI,OFF
METRIC,TZ,000.000
T5C0.800
T4C1.000
T3C1.016
T2C2.000
T1C2.800
%
G90
M71
T1
X38100Y-46990
X38100Y-16070
X-36820Y-16070
X-36820Y-46990
T2
X10840Y-92710
X19640Y-92710
T3
X-21590Y43180
X-21590Y40640
X-21590Y38100
X-21590Y35560
X-21590Y30480
X-21590Y27940
X-21590Y25400
X-21590Y22860
X-21590Y20320
X-21590Y17780
X26670Y17780
X26670Y20320
X26670Y22860
X26670Y25400
X26670Y27940
X26670Y30480
X26670Y33020
X26670Y35560
X26670Y39624
X26670Y42164
X26670Y44704
X26670Y47244
X26670Y49784
X26670Y52324
X26670Y54864
X26670Y57404
X26670Y59944
X26670Y62484
X-21590Y50800
X-21590Y53340
X-21590Y48260
X-21590Y45720
T4
X17740Y-85710
X15240Y-85710
X12740Y-85710
T5
X27560Y-16070
X25020Y-16070
X22480Y-16070
X19940Y-16070
X32640Y-16070
X14860Y-16070
X12320Y-16070
X9780Y-16070
X7240Y-16070
X4700Y-16070
X2160Y-16070
X17400Y-16070
X-2920Y-16070
X-5460Y-16070
X30100Y-16070
X-380Y-16070
M30